<svg xmlns="http://www.w3.org/2000/svg" viewBox="0 0 200 300">
  <!-- a patchwork castle out for a walk in the hills -->
  <rect width="200" height="300" fill="oklch(0.93 0.045 95)"/>
  <ellipse cx="48" cy="54" rx="28" ry="11" fill="oklch(0.98 0.008 95)"/>
  <ellipse cx="156" cy="84" rx="24" ry="9" fill="oklch(0.98 0.008 95)" opacity="0.85"/>
  <g>
    <rect x="66" y="118" width="52" height="70" rx="8" fill="oklch(0.68 0.055 60)"/>
    <rect x="84" y="84" width="34" height="44" rx="7" fill="oklch(0.74 0.06 45)"/>
    <rect x="112" y="132" width="30" height="46" rx="7" fill="oklch(0.62 0.06 60)"/>
    <circle cx="101" cy="104" r="6" fill="oklch(0.9 0.03 75)"/>
    <rect x="78" y="136" width="12" height="14" rx="3" fill="oklch(0.9 0.03 75)"/>
    <rect x="98" y="150" width="12" height="14" rx="3" fill="oklch(0.9 0.03 75)"/>
    <rect x="120" y="144" width="10" height="12" rx="3" fill="oklch(0.9 0.03 75)"/>
    <circle cx="92" cy="70" r="8" fill="oklch(0.75 0.06 45)"/>
  </g>
  <g stroke="oklch(0.5 0.05 60)" stroke-width="6" stroke-linecap="round">
    <path d="M84 190l-8 34"/>
    <path d="M118 190l10 34"/>
  </g>
  <path d="M0 300v-52q50-22 100-8t100-6v66z" fill="oklch(0.78 0.055 145)"/>
</svg>
