<svg xmlns="http://www.w3.org/2000/svg" viewBox="0 0 200 300">
  <!-- dusk over a city, two people a little apart -->
  <defs>
    <linearGradient id="sky" x1="0" y1="0" x2="0" y2="1">
      <stop offset="0" stop-color="oklch(0.76 0.075 300)"/>
      <stop offset="0.55" stop-color="oklch(0.84 0.06 18)"/>
      <stop offset="1" stop-color="oklch(0.9 0.055 60)"/>
    </linearGradient>
  </defs>
  <rect width="200" height="300" fill="url(#sky)"/>
  <circle cx="140" cy="150" r="26" fill="oklch(0.93 0.06 75)" opacity="0.9"/>
  <g fill="oklch(0.45 0.05 300)" opacity="0.55">
    <rect x="0" y="196" width="26" height="46" rx="2"/>
    <rect x="30" y="180" width="20" height="62" rx="2"/>
    <rect x="54" y="204" width="30" height="38" rx="2"/>
    <rect x="88" y="188" width="18" height="54" rx="2"/>
    <rect x="110" y="210" width="34" height="32" rx="2"/>
    <rect x="148" y="192" width="22" height="50" rx="2"/>
    <rect x="174" y="206" width="26" height="36" rx="2"/>
  </g>
  <rect x="0" y="240" width="200" height="60" fill="oklch(0.38 0.045 300)"/>
  <g fill="oklch(0.26 0.03 300)">
    <circle cx="78" cy="252" r="5.5"/>
    <rect x="72.5" y="256" width="11" height="20" rx="5"/>
    <circle cx="118" cy="252" r="5.5"/>
    <rect x="112.5" y="256" width="11" height="20" rx="5"/>
  </g>
</svg>
